<?xml version="1.0" encoding="UTF-8"?>
<svg id="Layer_2" data-name="Layer 2" xmlns="http://www.w3.org/2000/svg" viewBox="0 0 493.91 94.86">
  <defs>
    <style>
      .cls-1 {
        fill: #231f20;
      }
    </style>
  </defs>
  <g id="Layer_1-2" data-name="Layer 1">
    <g>
      <g>
        <g>
          <polygon class="cls-1" points="77 30.7 77 33.05 57.92 33.05 54.47 39.04 71.32 39.04 77 39.04 99.54 39.04 93.37 28.34 77 28.34 77 30.7"/>
          <polygon class="cls-1" points="77 17.64 77 20 65.46 20 62 25.98 71.32 25.98 77 25.98 92 25.98 85.83 15.28 77 15.28 77 17.64"/>
          <polygon class="cls-1" points="100.9 41.39 77 41.39 77 43.75 77 46.11 50.38 46.11 46.93 52.09 107.08 52.09 100.9 41.39"/>
          <polygon class="cls-1" points="84.47 12.93 77 0 69.54 12.93 84.47 12.93"/>
        </g>
        <g>
          <path class="cls-1" d="M296.67,4.64h-4.49l-19.98,47.26-.08.2h5.06l5.73-13.41h21.22l6.25,13.41h8.41l-22.06-47.37-.04-.08ZM301.86,33.85h-16.91l8.09-18.94,8.82,18.94Z"/>
          <path class="cls-1" d="M350.06,27.24c-2.07-1.18-4.34-2.18-6.76-2.97-2.34-.77-4.53-1.59-6.51-2.44-1.93-.83-3.55-1.78-4.82-2.85-1.13-.95-1.68-2.18-1.68-3.76,0-.89.2-1.73.58-2.5.39-.77.97-1.46,1.74-2.04.8-.6,1.81-1.1,3.01-1.48,1.21-.38,2.62-.57,4.21-.57,2.64,0,4.89.56,6.71,1.65,1.73,1.05,2.73,2.66,3.04,4.94l.11.82h6.38l-.18-1.1c-.28-1.74-.93-3.33-1.92-4.73-.98-1.37-2.23-2.55-3.72-3.5-1.47-.94-3.15-1.66-5-2.14-1.83-.47-3.76-.71-5.74-.71s-4.09.28-5.97.82c-1.9.55-3.6,1.36-5.05,2.42-1.48,1.08-2.67,2.46-3.54,4.1-.87,1.65-1.32,3.55-1.32,5.65,0,2.78.73,5.06,2.17,6.79,1.38,1.65,3.13,3.04,5.2,4.14,2.01,1.06,4.22,1.98,6.56,2.73,2.25.72,4.37,1.55,6.29,2.46,1.86.88,3.42,1.96,4.64,3.22,1.13,1.17,1.68,2.72,1.68,4.74,0,2.49-.87,4.25-2.65,5.38-1.9,1.2-4.5,1.8-7.72,1.8-2.59,0-4.67-.33-6.19-1-1.51-.66-2.67-1.44-3.44-2.32-.77-.89-1.3-1.8-1.56-2.73-.28-.99-.45-1.83-.49-2.49l-.05-.9h-6.32l.05,1c.09,2.01.63,3.87,1.6,5.51.96,1.63,2.28,3.04,3.93,4.17,1.62,1.12,3.55,1.99,5.73,2.6,2.16.61,4.55.91,7.1.91s4.98-.32,7.09-.95c2.13-.64,3.98-1.57,5.5-2.77,1.54-1.21,2.75-2.7,3.59-4.43.84-1.73,1.27-3.66,1.27-5.75,0-2.9-.75-5.32-2.23-7.19-1.42-1.8-3.21-3.33-5.33-4.53Z"/>
          <path class="cls-1" d="M394.3,27.24c-2.07-1.18-4.34-2.18-6.76-2.97-2.34-.77-4.53-1.59-6.51-2.44-1.93-.83-3.55-1.79-4.82-2.85-1.13-.95-1.68-2.18-1.68-3.76,0-.89.2-1.73.58-2.5.39-.77.97-1.46,1.74-2.04.8-.6,1.81-1.1,3.01-1.48,1.21-.38,2.62-.57,4.21-.57,2.64,0,4.89.56,6.71,1.65,1.73,1.05,2.73,2.66,3.04,4.94l.11.82h6.38l-.18-1.1c-.28-1.74-.93-3.33-1.92-4.73-.98-1.37-2.23-2.55-3.72-3.5-1.47-.94-3.15-1.66-5-2.14-1.83-.47-3.76-.71-5.74-.71s-4.09.28-5.97.82c-1.9.55-3.6,1.36-5.05,2.42-1.48,1.08-2.67,2.46-3.54,4.1-.87,1.65-1.31,3.55-1.31,5.65,0,2.78.73,5.06,2.17,6.79,1.38,1.65,3.12,3.04,5.2,4.14,2.01,1.06,4.22,1.98,6.56,2.73,2.25.72,4.37,1.55,6.29,2.46,1.86.88,3.42,1.96,4.64,3.22,1.13,1.17,1.68,2.72,1.68,4.74,0,2.49-.87,4.25-2.65,5.38-1.9,1.2-4.5,1.8-7.72,1.8-2.59,0-4.67-.33-6.19-1-1.51-.66-2.67-1.44-3.44-2.32-.77-.89-1.3-1.8-1.56-2.73-.28-.99-.45-1.83-.49-2.49l-.05-.9h-6.32l.05,1c.09,2.01.63,3.87,1.6,5.51.96,1.63,2.28,3.04,3.93,4.17,1.62,1.12,3.55,1.99,5.73,2.6,2.16.61,4.55.91,7.1.91s4.98-.32,7.09-.95c2.13-.64,3.98-1.57,5.5-2.77,1.54-1.21,2.75-2.7,3.59-4.43.84-1.73,1.27-3.66,1.27-5.75,0-2.9-.75-5.32-2.23-7.19-1.42-1.8-3.21-3.33-5.33-4.53Z"/>
          <polygon class="cls-1" points="441.27 4.64 427.78 27.9 414.92 4.64 406.04 4.64 422.45 34.14 422.45 52.09 430.28 52.09 430.28 33.56 446.98 4.64 441.27 4.64"/>
          <polygon class="cls-1" points="125.3 52.09 157.61 52.09 157.61 46.61 133.12 46.61 133.12 29.45 154.3 29.45 154.3 24.55 133.12 24.55 133.12 10.12 157.61 10.12 157.61 4.64 125.3 4.64 125.3 52.09"/>
          <path class="cls-1" d="M253.97,26.75c7.61-.38,10.48-4.73,11.14-6.07s1.01-2.83,1.01-4.36c0-1.33-.29-2.7-.86-4.07-.57-1.37-1.44-2.64-2.59-3.76-1.15-1.12-2.64-2.06-4.42-2.77-1.78-.71-3.88-1.08-6.26-1.08h-17.98v47.45h18.08c3.02,0,5.62-.4,7.72-1.2,2.12-.8,3.86-1.87,5.17-3.18,1.31-1.31,2.28-2.82,2.87-4.49.58-1.63.87-3.31.87-4.97,0-2.67-1.16-4.84-2.36-6.47-1.16-1.58-4.82-5.05-12.39-5.03ZM260.81,38.78c0,1.37-.24,2.59-.73,3.63-.49,1.05-1.15,1.95-1.96,2.69-.81.73-1.79,1.29-2.89,1.66-1.14.38-2.36.57-3.65.57h-9.75v-18.01h7.46c2.01,0,3.77.27,5.23.79,1.44.52,2.63,1.22,3.56,2.08.91.85,1.6,1.85,2.05,2.98.45,1.14.68,2.36.68,3.62ZM257.87,19.83c-.44.96-1.06,1.79-1.85,2.48-.8.7-1.73,1.26-2.77,1.65-1.04.39-2.16.59-3.34.59h-8.09v-15.15h8.22c1.56,0,2.9.22,3.97.65,1.06.43,1.94.99,2.6,1.67.66.68,1.14,1.46,1.44,2.32.31.89.47,1.8.47,2.68,0,1.11-.22,2.16-.66,3.12Z"/>
          <polygon class="cls-1" points="214.32 4.64 195.42 35.94 176.58 4.71 176.54 4.64 170.59 4.64 170.59 52.09 175.35 52.09 175.35 17.32 193.7 47.37 212.5 17.49 212.5 52.09 220.33 52.09 220.33 4.64 214.32 4.64"/>
        </g>
      </g>
      <g>
        <path class="cls-1" d="M0,76.04h3.19v18.49H0v-18.49Z"/>
        <path class="cls-1" d="M9.86,76.04h3.24l9.25,13.08v-13.08h3.19v18.49h-3.24l-9.25-13.08v13.08h-3.19v-18.49Z"/>
        <path class="cls-1" d="M36.24,79.04h-5.28v-3h13.72v3h-5.25v15.49h-3.19v-15.49Z"/>
        <path class="cls-1" d="M50.09,76.04h12.03v3h-8.84v4.69h7.96v3h-7.96v4.8h8.98v3h-12.17v-18.49Z"/>
        <path class="cls-1" d="M68,76.04h8.09c3.43,0,6.06,2.52,6.06,5.87,0,2.76-1.82,4.9-4.4,5.55l4.96,7.08h-3.99l-4.64-6.89h-2.89v6.89h-3.19v-18.49ZM76.01,84.86c1.63,0,2.87-1.26,2.87-2.92s-1.23-2.89-2.87-2.89h-4.82v5.82h4.82Z"/>
        <path class="cls-1" d="M87.83,76.04h3.24l9.25,13.08v-13.08h3.19v18.49h-3.24l-9.25-13.08v13.08h-3.19v-18.49Z"/>
        <path class="cls-1" d="M115.62,76.04h3.78l7.29,18.49h-3.51l-1.5-3.94h-8.42l-1.5,3.94h-3.43l7.29-18.49ZM120.56,87.65l-3.08-8.12-3.08,8.12h6.16Z"/>
        <path class="cls-1" d="M135.51,79.04h-5.28v-3h13.72v3h-5.25v15.49h-3.19v-15.49Z"/>
        <path class="cls-1" d="M149.37,76.04h3.19v18.49h-3.19v-18.49Z"/>
        <path class="cls-1" d="M158.27,85.29c0-5.44,4.21-9.57,9.73-9.57s9.73,4.13,9.73,9.57-4.18,9.57-9.73,9.57-9.73-4.13-9.73-9.57ZM174.45,85.29c0-3.7-2.79-6.49-6.46-6.49s-6.43,2.79-6.43,6.49,2.79,6.49,6.43,6.49,6.46-2.79,6.46-6.49Z"/>
        <path class="cls-1" d="M183.46,76.04h3.24l9.25,13.08v-13.08h3.19v18.49h-3.24l-9.25-13.08v13.08h-3.19v-18.49Z"/>
        <path class="cls-1" d="M211.26,76.04h3.78l7.29,18.49h-3.51l-1.5-3.94h-8.42l-1.5,3.94h-3.43l7.29-18.49ZM216.19,87.65l-3.08-8.12-3.08,8.12h6.16Z"/>
        <path class="cls-1" d="M227.15,76.04h3.19v15.49h8.17v3h-11.36v-18.49Z"/>
        <path class="cls-1" d="M252.91,76.04h8.09c3.43,0,6.06,2.52,6.06,5.87,0,2.76-1.82,4.9-4.4,5.55l4.96,7.08h-3.99l-4.64-6.89h-2.89v6.89h-3.19v-18.49ZM260.92,84.86c1.64,0,2.87-1.26,2.87-2.92s-1.23-2.89-2.87-2.89h-4.82v5.82h4.82Z"/>
        <path class="cls-1" d="M272.74,76.04h3.19v18.49h-3.19v-18.49Z"/>
        <path class="cls-1" d="M282.6,76.04h7.18c5.39,0,9.41,3.97,9.41,9.25s-4.02,9.25-9.41,9.25h-7.18v-18.49ZM289.73,91.53c3.54,0,6.19-2.68,6.19-6.24s-2.65-6.24-6.19-6.24h-3.94v12.49h3.94Z"/>
        <path class="cls-1" d="M304.93,76.04h3.19v18.49h-3.19v-18.49Z"/>
        <path class="cls-1" d="M314.79,76.04h3.24l9.25,13.08v-13.08h3.19v18.49h-3.24l-9.25-13.08v13.08h-3.19v-18.49Z"/>
        <path class="cls-1" d="M336.21,85.29c0-5.44,4.21-9.57,9.73-9.57,4.29,0,7.85,2.49,8.98,6h-3.56c-1.05-1.77-3.03-2.92-5.41-2.92-3.64,0-6.43,2.79-6.43,6.49s2.79,6.49,6.43,6.49c3.06,0,5.47-1.85,6.11-4.53h-5.47v-2.87h8.84v1.07c0,5.36-4.02,9.41-9.49,9.41s-9.73-4.13-9.73-9.57Z"/>
        <path class="cls-1" d="M369.15,89.17h3.27c0,1.61,1.55,2.81,3.56,2.81,1.88,0,3.38-1.02,3.38-2.49,0-3.67-9.89-2.01-9.89-8.31,0-3.32,2.84-5.47,6.41-5.47s6.46,2.33,6.46,5.44h-3.27c0-1.47-1.39-2.57-3.24-2.57-1.66,0-3.08.91-3.08,2.36,0,3.67,9.92,1.77,9.92,8.2,0,3.46-2.97,5.71-6.7,5.71s-6.81-2.47-6.81-5.68Z"/>
        <path class="cls-1" d="M387.37,85.29c0-5.44,4.21-9.57,9.73-9.57,4.64,0,8.33,2.92,9.25,7.02h-3.38c-.83-2.36-3.11-3.94-5.87-3.94-3.64,0-6.43,2.79-6.43,6.49s2.79,6.49,6.43,6.49c2.76,0,5.04-1.58,5.87-3.94h3.38c-.91,4.1-4.61,7.02-9.25,7.02-5.52,0-9.73-4.13-9.73-9.57Z"/>
        <path class="cls-1" d="M424.23,86.74h-9.06v7.8h-3.19v-18.49h3.19v7.69h9.06v-7.69h3.16v18.49h-3.16v-7.8Z"/>
        <path class="cls-1" d="M433.12,85.29c0-5.44,4.21-9.57,9.73-9.57s9.73,4.13,9.73,9.57-4.18,9.57-9.73,9.57-9.73-4.13-9.73-9.57ZM449.31,85.29c0-3.7-2.79-6.49-6.46-6.49s-6.43,2.79-6.43,6.49,2.79,6.49,6.43,6.49,6.46-2.79,6.46-6.49Z"/>
        <path class="cls-1" d="M457.35,85.29c0-5.44,4.21-9.57,9.73-9.57s9.73,4.13,9.73,9.57-4.18,9.57-9.73,9.57-9.73-4.13-9.73-9.57ZM473.54,85.29c0-3.7-2.79-6.49-6.46-6.49s-6.43,2.79-6.43,6.49,2.79,6.49,6.43,6.49,6.46-2.79,6.46-6.49Z"/>
        <path class="cls-1" d="M482.55,76.04h3.19v15.49h8.17v3h-11.36v-18.49Z"/>
      </g>
    </g>
  </g>
</svg>